<?xml version="1.0" encoding="UTF-8" standalone="no"?>
<!-- Uploaded to: SVG Repo, www.svgrepo.com, Generator: SVG Repo Mixer Tools -->

<svg
   width="4271.2173"
   height="800.18158"
   viewBox="0 0 85.424346 16.003632"
   fill="none"
   version="1.1"
   id="svg4"
   sodipodi:docname="ohiofps.svg"
   inkscape:version="1.2.2 (b0a8486541, 2022-12-01)"
   inkscape:export-filename="ohiofps.png"
   inkscape:export-xdpi="11.507727"
   inkscape:export-ydpi="11.507727"
   xmlns:inkscape="http://www.inkscape.org/namespaces/inkscape"
   xmlns:sodipodi="http://sodipodi.sourceforge.net/DTD/sodipodi-0.dtd"
   xmlns:xlink="http://www.w3.org/1999/xlink"
   xmlns="http://www.w3.org/2000/svg"
   xmlns:svg="http://www.w3.org/2000/svg">
  <defs
     id="defs8">
    <linearGradient
       inkscape:collect="always"
       id="linearGradient1198">
      <stop
         style="stop-color:#ff9a00;stop-opacity:1;"
         offset="0"
         id="stop1194" />
      <stop
         style="stop-color:#fff800;stop-opacity:1;"
         offset="1"
         id="stop1196" />
    </linearGradient>
    <linearGradient
       inkscape:collect="always"
       id="linearGradient1178">
      <stop
         style="stop-color:#fff800;stop-opacity:1;"
         offset="0"
         id="stop1174" />
      <stop
         style="stop-color:#fff800;stop-opacity:0;"
         offset="1"
         id="stop1176" />
    </linearGradient>
    <rect
       x="852.07098"
       y="20.828402"
       width="1262.9586"
       height="747.92902"
       id="rect930" />
    <linearGradient
       inkscape:collect="always"
       xlink:href="#linearGradient1178"
       id="linearGradient1180"
       x1="0.00020898334"
       y1="8.0013285"
       x2="85.424553"
       y2="8.0013285"
       gradientUnits="userSpaceOnUse" />
    <linearGradient
       inkscape:collect="always"
       xlink:href="#linearGradient1198"
       id="linearGradient1192"
       gradientUnits="userSpaceOnUse"
       x1="0.00020898334"
       y1="8.0013285"
       x2="85.424553"
       y2="8.0013285" />
    <linearGradient
       inkscape:collect="always"
       xlink:href="#linearGradient1198"
       id="linearGradient1200"
       gradientUnits="userSpaceOnUse"
       x1="0.32154509"
       y1="-0.35341015"
       x2="15.266171"
       y2="8.7511129" />
    <linearGradient
       inkscape:collect="always"
       xlink:href="#linearGradient1198"
       id="linearGradient253"
       gradientUnits="userSpaceOnUse"
       x1="0.00020898334"
       y1="8.0013285"
       x2="85.424553"
       y2="8.0013285" />
    <linearGradient
       inkscape:collect="always"
       xlink:href="#linearGradient1198"
       id="linearGradient255"
       gradientUnits="userSpaceOnUse"
       x1="0.00020898334"
       y1="8.0013285"
       x2="85.424553"
       y2="8.0013285" />
    <linearGradient
       inkscape:collect="always"
       xlink:href="#linearGradient1198"
       id="linearGradient257"
       gradientUnits="userSpaceOnUse"
       x1="0.00020898334"
       y1="8.0013285"
       x2="85.424553"
       y2="8.0013285" />
    <linearGradient
       inkscape:collect="always"
       xlink:href="#linearGradient1198"
       id="linearGradient259"
       gradientUnits="userSpaceOnUse"
       x1="0.00020898334"
       y1="8.0013285"
       x2="85.424553"
       y2="8.0013285" />
    <linearGradient
       inkscape:collect="always"
       xlink:href="#linearGradient1198"
       id="linearGradient261"
       gradientUnits="userSpaceOnUse"
       x1="0.00020898334"
       y1="8.0013285"
       x2="85.424553"
       y2="8.0013285" />
    <linearGradient
       inkscape:collect="always"
       xlink:href="#linearGradient1198"
       id="linearGradient263"
       gradientUnits="userSpaceOnUse"
       x1="0.00020898334"
       y1="8.0013285"
       x2="85.424553"
       y2="8.0013285" />
    <linearGradient
       inkscape:collect="always"
       xlink:href="#linearGradient1178"
       id="linearGradient265"
       gradientUnits="userSpaceOnUse"
       x1="0.00020898334"
       y1="8.0013285"
       x2="85.424553"
       y2="8.0013285" />
  </defs>
  <sodipodi:namedview
     id="namedview6"
     pagecolor="#505050"
     bordercolor="#eeeeee"
     borderopacity="1"
     inkscape:showpageshadow="0"
     inkscape:pageopacity="0"
     inkscape:pagecheckerboard="0"
     inkscape:deskcolor="#505050"
     showgrid="false"
     inkscape:zoom="0.18672038"
     inkscape:cx="1250.533"
     inkscape:cy="937.23031"
     inkscape:window-width="1920"
     inkscape:window-height="1011"
     inkscape:window-x="0"
     inkscape:window-y="0"
     inkscape:window-maximized="1"
     inkscape:current-layer="g1190" />
  <g
     id="g1139"
     transform="translate(-2.0840671e-4,4.8739933e-4)">
    <g
       id="g1172"
       style="fill:url(#linearGradient1180);fill-opacity:1">
      <g
         aria-label="hioFPS"
         transform="matrix(0.18365775,0,0,0.18365775,-140.28287,-7.5340809)"
         id="text928"
         style="font-size:118.667px;font-family:'Red Hat Display';-inkscape-font-specification:'Red Hat Display, Normal';white-space:pre;shape-inside:url(#rect930);fill:url(#linearGradient265);fill-opacity:1;stroke-width:7.55906;stroke-linejoin:round">
        <g
           id="g1190"
           style="fill:url(#linearGradient1192);fill-opacity:1">
          <path
             d="M 859.54633,126.97141 V 43.904506 l 8.78136,-2.017339 v 32.633425 q 3.44134,-4.034678 8.18802,-6.052017 4.74668,-2.136006 10.56137,-2.136006 10.08669,0 16.49471,6.408018 6.40802,6.408018 6.40802,16.61338 v 37.617443 h -8.66269 V 91.133972 q 0,-7.832022 -4.50935,-12.460035 -4.50934,-4.628013 -12.10403,-4.628013 -5.34002,0 -9.61203,2.37334 -4.15334,2.37334 -6.76402,6.764019 v 43.788127 z"
             id="path1151"
             style="fill:url(#linearGradient253);fill-opacity:1" />
          <path
             d="m 929.08517,56.127207 q -2.37334,0 -4.15335,-1.780005 -1.78,-1.780005 -1.78,-4.153345 0,-2.492007 1.78,-4.153345 1.78001,-1.780005 4.15335,-1.780005 2.492,0 4.15334,1.780005 1.78001,1.661338 1.78001,4.153345 0,2.37334 -1.78001,4.153345 -1.66134,1.780005 -4.15334,1.780005 z m 4.39068,11.392032 v 59.452171 h -8.78136 V 67.519239 Z"
             id="path1153"
             style="fill:url(#linearGradient255);fill-opacity:1" />
          <path
             d="m 945.69864,97.185989 q 0,-6.408018 2.37334,-12.104034 2.37334,-5.696016 6.40802,-9.849361 4.15334,-4.153345 9.73069,-6.526685 5.57735,-2.37334 11.8667,-2.37334 6.28935,0 11.74803,2.37334 5.57735,2.37334 9.61203,6.526685 4.15335,4.153345 6.52665,9.849361 2.3734,5.696016 2.3734,12.104034 0,6.526681 -2.3734,12.222701 -2.3733,5.69602 -6.52665,9.84936 -4.03468,4.15335 -9.61203,6.52669 -5.45868,2.37334 -11.74803,2.37334 -6.28935,0 -11.8667,-2.37334 -5.57735,-2.37334 -9.73069,-6.52669 -4.03468,-4.15334 -6.40802,-9.84936 -2.37334,-5.69602 -2.37334,-12.222701 z m 30.37875,23.140061 q 4.50935,0 8.42536,-1.78 4.03467,-1.78001 6.88268,-4.86535 2.96668,-3.20401 4.62802,-7.35735 1.66133,-4.27201 1.66133,-9.137361 0,-4.865347 -1.66133,-9.018692 -1.66134,-4.272012 -4.62802,-7.357354 -2.84801,-3.085342 -6.88268,-4.865347 -3.91601,-1.780005 -8.42536,-1.780005 -4.50935,0 -8.54402,1.780005 -3.91602,1.780005 -6.88269,4.865347 -2.84801,3.085342 -4.62801,7.357354 -1.66134,4.153345 -1.66134,9.018692 0,4.865351 1.66134,9.137361 1.66133,4.15334 4.50934,7.35735 2.96668,3.08534 7.00136,4.86535 4.03467,1.78 8.54402,1.78 z"
             id="path1155"
             style="fill:url(#linearGradient257);fill-opacity:1" />
          <path
             d="M 1020.2215,126.97141 V 43.904506 h 59.4521 v 8.069356 h -50.3148 v 29.66675 h 32.9895 v 7.950689 h -32.9895 v 37.380109 z"
             id="path1157"
             style="fill:url(#linearGradient259);fill-opacity:1" />
          <path
             d="M 1092.2524,126.97141 V 43.904506 h 36.0747 q 12.1041,0 19.4614,6.645352 7.3574,6.526685 7.3574,17.325382 0,10.798697 -7.476,17.444049 -7.3574,6.645352 -19.3428,6.645352 h -26.9374 v 35.006769 z m 35.3627,-74.878881 h -26.2254 v 31.921423 h 26.2254 q 8.4254,0 13.4094,-4.272012 4.984,-4.390679 4.984,-11.748033 0,-7.357354 -4.984,-11.629366 -4.984,-4.272012 -13.4094,-4.272012 z"
             id="path1159"
             style="fill:url(#linearGradient261);fill-opacity:1" />
          <path
             d="m 1162.3845,112.73137 6.052,-6.28935 q 6.4081,6.76401 13.6468,10.32402 7.3573,3.44135 15.4267,3.44135 9.7307,0 16.02,-4.62802 6.2894,-4.62801 6.2894,-11.74803 0,-6.408017 -4.5094,-9.84936 -4.3907,-3.441343 -14.596,-5.102681 l -11.9854,-1.898672 q -11.9854,-1.898672 -17.6814,-7.001353 -5.696,-5.221348 -5.696,-14.002706 0,-10.324029 8.0694,-16.732047 8.0693,-6.408018 21.1227,-6.408018 8.6627,0 17.2067,2.848008 8.544,2.848008 15.5454,8.188023 l -5.2214,7.12002 q -6.764,-5.102681 -13.7653,-7.713355 -7.0014,-2.610674 -14.1214,-2.610674 -8.9,0 -14.4774,4.153345 -5.4587,4.034678 -5.4587,10.442696 0,5.814683 3.916,8.900025 3.9161,3.085342 12.9347,4.509346 l 11.8667,1.898672 q 13.5281,2.254673 19.6988,7.713355 6.2893,5.458682 6.2893,15.070706 0,5.45869 -2.3733,10.0867 -2.2547,4.50934 -6.5267,7.83202 -4.1534,3.20401 -10.0867,5.10268 -5.8147,1.78001 -12.816,1.78001 -9.8494,0 -18.9868,-3.91601 -9.0187,-4.03468 -15.7827,-11.5107 z"
             id="path1161"
             style="fill:url(#linearGradient263);fill-opacity:1" />
          <path
             fill="#000000"
             fill-rule="evenodd"
             d="M 0.64730307,4.8475648 A 8,8 0 1 1 15.352697,11.152435 8,8 0 0 1 0.64730307,4.8475648 Z M 6.1449061,14.230086 6.8175569,12.661205 A 0.75000009,0.75000009 0 0 0 5.4389262,12.070123 L 4.7662754,13.639005 A 6.503,6.503 0 0 1 1.7699137,6.1449061 L 3.3387954,6.8175569 A 0.75000001,0.75000001 0 0 0 3.929877,5.4389262 L 2.3609953,4.7662754 A 6.503,6.503 0 0 1 9.8550939,1.7699137 L 9.1824431,3.3387954 A 0.7500001,0.7500001 0 0 0 10.561074,3.929877 l 0.672651,-1.5688817 a 6.503,6.503 0 0 1 2.996361,7.4940986 L 12.661205,9.1824431 a 0.75000018,0.75000018 0 0 0 -0.591082,1.3786309 l 1.568882,0.672651 a 6.503,6.503 0 0 1 -7.4940989,2.996361 z"
             clip-rule="evenodd"
             id="path2"
             style="fill:url(#linearGradient1200);fill-opacity:1"
             transform="matrix(5.4449104,0,0,5.4449104,763.82766,41.022396)" />
        </g>
      </g>
    </g>
  </g>
</svg>
