<?xml version="1.0" encoding="UTF-8" standalone="no"?>
<!-- Created with Inkscape (http://www.inkscape.org/) -->

<svg
   width="1152"
   height="648"
   viewBox="0 0 304.8 171.45001"
   version="1.1"
   id="svg5"
   xml:space="preserve"
   inkscape:version="1.2.2 (b0a8486541, 2022-12-01)"
   sodipodi:docname="ohiofps-splash.svg"
   inkscape:export-filename="ohiofps-splash.png"
   inkscape:export-xdpi="96"
   inkscape:export-ydpi="96"
   xmlns:inkscape="http://www.inkscape.org/namespaces/inkscape"
   xmlns:sodipodi="http://sodipodi.sourceforge.net/DTD/sodipodi-0.dtd"
   xmlns:xlink="http://www.w3.org/1999/xlink"
   xmlns="http://www.w3.org/2000/svg"
   xmlns:svg="http://www.w3.org/2000/svg"><sodipodi:namedview
     id="namedview7"
     pagecolor="#505050"
     bordercolor="#eeeeee"
     borderopacity="1"
     inkscape:showpageshadow="0"
     inkscape:pageopacity="0"
     inkscape:pagecheckerboard="0"
     inkscape:deskcolor="#505050"
     inkscape:document-units="mm"
     showgrid="false"
     inkscape:zoom="0.49638341"
     inkscape:cx="220.59561"
     inkscape:cy="284.05462"
     inkscape:window-width="1920"
     inkscape:window-height="1011"
     inkscape:window-x="0"
     inkscape:window-y="0"
     inkscape:window-maximized="1"
     inkscape:current-layer="layer1" /><defs
     id="defs2"><linearGradient
       inkscape:collect="always"
       id="linearGradient1198"><stop
         style="stop-color:#ff9a00;stop-opacity:1;"
         offset="0"
         id="stop1194" /><stop
         style="stop-color:#fff800;stop-opacity:1;"
         offset="1"
         id="stop1196" /></linearGradient><linearGradient
       inkscape:collect="always"
       id="linearGradient1178"><stop
         style="stop-color:#fff800;stop-opacity:1;"
         offset="0"
         id="stop1174" /><stop
         style="stop-color:#fff800;stop-opacity:0;"
         offset="1"
         id="stop1176" /></linearGradient><rect
       x="852.07098"
       y="20.828402"
       width="1262.9586"
       height="747.92902"
       id="rect930" /><linearGradient
       inkscape:collect="always"
       xlink:href="#linearGradient1178"
       id="linearGradient1180"
       x1="0.00020898334"
       y1="8.0013285"
       x2="85.424553"
       y2="8.0013285"
       gradientUnits="userSpaceOnUse" /><linearGradient
       inkscape:collect="always"
       xlink:href="#linearGradient1198"
       id="linearGradient1192"
       gradientUnits="userSpaceOnUse"
       x1="0.00020898334"
       y1="8.0013285"
       x2="85.424553"
       y2="8.0013285" /><linearGradient
       inkscape:collect="always"
       xlink:href="#linearGradient1198"
       id="linearGradient1200"
       gradientUnits="userSpaceOnUse"
       x1="0.32154509"
       y1="-0.35341015"
       x2="15.266171"
       y2="8.7511129" /></defs><g
     inkscape:label="Layer 1"
     inkscape:groupmode="layer"
     id="layer1"><g
       style="fill:none"
       id="g335"
       transform="matrix(2.9990159,0,0,2.9990159,27.975707,19.124224)"><g
         id="g1190"
         style="font-size:118.667px;font-family:'Red Hat Display';-inkscape-font-specification:'Red Hat Display, Normal';white-space:pre;fill:url(#linearGradient1192);fill-opacity:1;stroke-width:7.55906;stroke-linejoin:round"
         transform="matrix(0.18365775,0,0,0.18365775,-140.28308,-7.5335935)"><path
           d="M 859.54633,126.97141 V 43.904506 l 8.78136,-2.017339 v 32.633425 q 3.44134,-4.034678 8.18802,-6.052017 4.74668,-2.136006 10.56137,-2.136006 10.08669,0 16.49471,6.408018 6.40802,6.408018 6.40802,16.61338 v 37.617443 h -8.66269 V 91.133972 q 0,-7.832022 -4.50935,-12.460035 -4.50934,-4.628013 -12.10403,-4.628013 -5.34002,0 -9.61203,2.37334 -4.15334,2.37334 -6.76402,6.764019 v 43.788127 z"
           id="path1151"
           style="fill:#fff800;fill-opacity:1" /><path
           d="m 929.08517,56.127207 q -2.37334,0 -4.15335,-1.780005 -1.78,-1.780005 -1.78,-4.153345 0,-2.492007 1.78,-4.153345 1.78001,-1.780005 4.15335,-1.780005 2.492,0 4.15334,1.780005 1.78001,1.661338 1.78001,4.153345 0,2.37334 -1.78001,4.153345 -1.66134,1.780005 -4.15334,1.780005 z m 4.39068,11.392032 v 59.452171 h -8.78136 V 67.519239 Z"
           id="path1153"
           style="fill:#fff800;fill-opacity:1" /><path
           d="m 945.69864,97.185989 q 0,-6.408018 2.37334,-12.104034 2.37334,-5.696016 6.40802,-9.849361 4.15334,-4.153345 9.73069,-6.526685 5.57735,-2.37334 11.8667,-2.37334 6.28935,0 11.74803,2.37334 5.57735,2.37334 9.61203,6.526685 4.15335,4.153345 6.52665,9.849361 2.3734,5.696016 2.3734,12.104034 0,6.526681 -2.3734,12.222701 -2.3733,5.69602 -6.52665,9.84936 -4.03468,4.15335 -9.61203,6.52669 -5.45868,2.37334 -11.74803,2.37334 -6.28935,0 -11.8667,-2.37334 -5.57735,-2.37334 -9.73069,-6.52669 -4.03468,-4.15334 -6.40802,-9.84936 -2.37334,-5.69602 -2.37334,-12.222701 z m 30.37875,23.140061 q 4.50935,0 8.42536,-1.78 4.03467,-1.78001 6.88268,-4.86535 2.96668,-3.20401 4.62802,-7.35735 1.66133,-4.27201 1.66133,-9.137361 0,-4.865347 -1.66133,-9.018692 -1.66134,-4.272012 -4.62802,-7.357354 -2.84801,-3.085342 -6.88268,-4.865347 -3.91601,-1.780005 -8.42536,-1.780005 -4.50935,0 -8.54402,1.780005 -3.91602,1.780005 -6.88269,4.865347 -2.84801,3.085342 -4.62801,7.357354 -1.66134,4.153345 -1.66134,9.018692 0,4.865351 1.66134,9.137361 1.66133,4.15334 4.50934,7.35735 2.96668,3.08534 7.00136,4.86535 4.03467,1.78 8.54402,1.78 z"
           id="path1155"
           style="fill:#fff800;fill-opacity:1" /><path
           d="M 1020.2215,126.97141 V 43.904506 h 59.4521 v 8.069356 h -50.3148 v 29.66675 h 32.9895 v 7.950689 h -32.9895 v 37.380109 z"
           id="path1157"
           style="fill:#fff800;fill-opacity:1" /><path
           d="M 1092.2524,126.97141 V 43.904506 h 36.0747 q 12.1041,0 19.4614,6.645352 7.3574,6.526685 7.3574,17.325382 0,10.798697 -7.476,17.444049 -7.3574,6.645352 -19.3428,6.645352 h -26.9374 v 35.006769 z m 35.3627,-74.878881 h -26.2254 v 31.921423 h 26.2254 q 8.4254,0 13.4094,-4.272012 4.984,-4.390679 4.984,-11.748033 0,-7.357354 -4.984,-11.629366 -4.984,-4.272012 -13.4094,-4.272012 z"
           id="path1159"
           style="fill:#fff800;fill-opacity:1" /><path
           d="m 1162.3845,112.73137 6.052,-6.28935 q 6.4081,6.76401 13.6468,10.32402 7.3573,3.44135 15.4267,3.44135 9.7307,0 16.02,-4.62802 6.2894,-4.62801 6.2894,-11.74803 0,-6.408017 -4.5094,-9.84936 -4.3907,-3.441343 -14.596,-5.102681 l -11.9854,-1.898672 q -11.9854,-1.898672 -17.6814,-7.001353 -5.696,-5.221348 -5.696,-14.002706 0,-10.324029 8.0694,-16.732047 8.0693,-6.408018 21.1227,-6.408018 8.6627,0 17.2067,2.848008 8.544,2.848008 15.5454,8.188023 l -5.2214,7.12002 q -6.764,-5.102681 -13.7653,-7.713355 -7.0014,-2.610674 -14.1214,-2.610674 -8.9,0 -14.4774,4.153345 -5.4587,4.034678 -5.4587,10.442696 0,5.814683 3.916,8.900025 3.9161,3.085342 12.9347,4.509346 l 11.8667,1.898672 q 13.5281,2.254673 19.6988,7.713355 6.2893,5.458682 6.2893,15.070706 0,5.45869 -2.3733,10.0867 -2.2547,4.50934 -6.5267,7.83202 -4.1534,3.20401 -10.0867,5.10268 -5.8147,1.78001 -12.816,1.78001 -9.8494,0 -18.9868,-3.91601 -9.0187,-4.03468 -15.7827,-11.5107 z"
           id="path1161"
           style="fill:#fff800;fill-opacity:1" /><path
           fill="#000000"
           fill-rule="evenodd"
           d="M 0.64730307,4.8475648 A 8,8 0 1 1 15.352697,11.152435 8,8 0 0 1 0.64730307,4.8475648 Z M 6.1449061,14.230086 6.8175569,12.661205 A 0.75000009,0.75000009 0 0 0 5.4389262,12.070123 L 4.7662754,13.639005 A 6.503,6.503 0 0 1 1.7699137,6.1449061 L 3.3387954,6.8175569 A 0.75000001,0.75000001 0 0 0 3.929877,5.4389262 L 2.3609953,4.7662754 A 6.503,6.503 0 0 1 9.8550939,1.7699137 L 9.1824431,3.3387954 A 0.7500001,0.7500001 0 0 0 10.561074,3.929877 l 0.672651,-1.5688817 a 6.503,6.503 0 0 1 2.996361,7.4940986 L 12.661205,9.1824431 a 0.75000018,0.75000018 0 0 0 -0.591082,1.3786309 l 1.568882,0.672651 a 6.503,6.503 0 0 1 -7.4940989,2.996361 z"
           clip-rule="evenodd"
           id="path2"
           style="fill:url(#linearGradient1200);fill-opacity:1"
           transform="matrix(5.4449104,0,0,5.4449104,763.82766,41.022396)" /></g></g><g
       transform="matrix(0.35405433,0,0,0.35405433,205.86238,119.90372)"
       id="g1804"><path
         style="opacity:0.2"
         d="M 25,56 C 8.6551,53.886 7.9914,45.471 7.9914,45.471 L 8,26 4,21.951 l 5,-7 5,3 4,-4 V 8 l 8,-3 2,5 h 8 l 2,-5 8,3 v 6 l 4,4 5,-3 5,7 -4,4 -0.02,19.471 c 0,0 -0.5,10.29 -16.98,10.529 z"
         id="path1778" /><path
         style="fill:#3888c3"
         d="M 25,55 C 8.6551,52.886 7.9914,44.471 7.9914,44.471 L 8,25 4,20.951 l 5,-7 5,3 4,-4 V 7 l 8,-3 2,5 h 8 l 2,-5 8,3 v 6 l 4,4 5,-3 5,7 -4,4 -0.02,19.471 c 0,0 -0.5,10.29 -16.98,10.529 z"
         id="path1780" /><circle
         style="opacity:0.2"
         cx="20"
         cy="30"
         r="6"
         id="circle1782" /><circle
         style="fill:#ffffff"
         cx="20"
         cy="29"
         r="6"
         id="circle1784" /><circle
         style="fill:#353535"
         cx="20"
         cy="29"
         r="4"
         id="circle1786" /><circle
         style="opacity:0.2"
         cx="44"
         cy="30"
         r="6"
         id="circle1788" /><circle
         style="fill:#ffffff"
         cx="44"
         cy="29"
         r="6"
         id="circle1790" /><circle
         style="fill:#353535"
         cx="44"
         cy="29"
         r="4"
         id="circle1792" /><path
         style="opacity:0.2;fill:#ffffff"
         d="M 4,21 8.9979,13.995 14,17 18,13 v 1 L 14,18 9.0001,15 C 9.0894,14.961 6.0166,19.192 4.4183,21.417 Z M 60.001,21 54.999,14 49.994,16.998 45.996,12.999 46,14 l 4,4 4.999,-3 4.579,6.405 z M 45.996,7.0006 38.001,4.0001 35.999,9 l 0.002,1 2,-5 L 46,8.0001 Z m -27.994,0 L 26,4.0001 28,9 h 7.999 l 0.002,1 H 28 L 26,5 18,8.0001 Z"
         id="path1794" /><path
         style="fill:none;stroke:#000000;stroke-width:4.0017;stroke-linecap:round;stroke-opacity:0.2"
         d="m 32.001,30.001 v 5.998"
         id="path1796" /><path
         style="fill:none;stroke:#ffffff;stroke-width:4.0007;stroke-linecap:round"
         d="m 32,29 v 5.996"
         id="path1798" /><path
         style="opacity:0.2;fill:none;stroke:#000000;stroke-width:2;stroke-linejoin:round"
         d="m 56,43.001 h -9 v 4 H 37 V 43 H 32 M 8,43.001 h 9 v 4 H 27 V 43 h 5"
         id="path1800" /><path
         style="fill:none;stroke:#ffffff;stroke-width:2;stroke-linejoin:round"
         d="m 56,42.001 h -9 v 4 H 37 V 42 H 32 M 8,42.001 h 9 v 4 H 27 V 42 h 5"
         id="path1802" /></g><text
       xml:space="preserve"
       style="font-size:4.93889px;font-family:Montserrat;-inkscape-font-specification:'Montserrat, Normal';fill:#fff800;fill-opacity:1;stroke-width:2;stroke-linejoin:round;font-weight:normal;font-style:normal;font-stretch:normal;font-variant:normal;font-variant-ligatures:normal;font-variant-caps:normal;font-variant-numeric:normal;font-variant-east-asian:normal"
       x="77.378777"
       y="117.32837"
       id="text2243"><tspan
         sodipodi:role="line"
         id="tspan2241"
         style="stroke-width:2;-inkscape-font-specification:'Montserrat, Normal';font-family:Montserrat;font-weight:normal;font-style:normal;font-stretch:normal;font-variant:normal;font-size:4.93888889px;font-variant-ligatures:normal;font-variant-caps:normal;font-variant-numeric:normal;font-variant-east-asian:normal"
         x="77.378777"
         y="117.32837" /></text><text
       xml:space="preserve"
       style="font-style:normal;font-variant:normal;font-weight:normal;font-stretch:normal;font-size:12.7px;font-family:Montserrat;-inkscape-font-specification:'Montserrat, Normal';font-variant-ligatures:normal;font-variant-caps:normal;font-variant-numeric:normal;font-variant-east-asian:normal;fill:#3888c3;fill-opacity:1;stroke-width:2;stroke-linejoin:round"
       x="81.100098"
       y="134.93985"
       id="text2292"><tspan
         sodipodi:role="line"
         id="tspan2290"
         style="font-style:normal;font-variant:normal;font-weight:normal;font-stretch:normal;font-size:12.7px;font-family:Montserrat;-inkscape-font-specification:'Montserrat, Normal';font-variant-ligatures:normal;font-variant-caps:normal;font-variant-numeric:normal;font-variant-east-asian:normal;fill:#3888c3;fill-opacity:1;stroke-width:2"
         x="81.100098"
         y="134.93985">Powered by Godot</tspan></text></g></svg>
